<?xml version="1.0" encoding="UTF-8"?>
<svg id="_Шар_2" data-name="Шар 2" xmlns="http://www.w3.org/2000/svg" viewBox="0 0 182.21 172.46">
  <defs>
    <style>
      .cls-1 {
        fill: #e4b58d;
        stroke-width: 0px;
      }
    </style>
  </defs>
  <g id="_Шар_1-2" data-name="Шар 1">
    <g>
      <g>
        <path class="cls-1" d="m92.65,87.3c-3.1,4.62-4.86,9.85-4.86,15.39,0,18.72,20.03,33.95,44.64,33.95,6.22,0,12.28-.97,17.99-2.89.27-.09.54-.14.82-.14.35,0,.7.08,1.03.22l19.38,8.49-4.96-15.94c-.29-.93-.03-1.94.68-2.62,6.34-6.06,9.69-13.35,9.69-21.07,0-16.38-15.33-30.09-35.65-33.26l3.7-4.55c21.32,4.42,37.09,19.7,37.09,37.81,0,8.54-3.59,16.88-10.13,23.65l6.17,19.83c.3.96.01,2.01-.74,2.68-.48.43-1.09.65-1.71.65-.35,0-.7-.07-1.03-.22l-23.64-10.34c-5.96,1.89-12.24,2.85-18.68,2.85-27.45,0-49.79-17.54-49.79-39.09,0-6.36,1.95-12.38,5.4-17.69"/>
        <g>
          <path class="cls-1" d="m112.84,111.11c-5.1,0-9.25-4.15-9.25-9.26s4.15-9.26,9.25-9.26,9.26,4.15,9.26,9.26-4.15,9.26-9.26,9.26Zm0-13.38c-2.27,0-4.11,1.85-4.11,4.12s1.85,4.12,4.11,4.12,4.12-1.85,4.12-4.12-1.85-4.12-4.12-4.12Z"/>
          <path class="cls-1" d="m132.44,111.11c-5.11,0-9.26-4.15-9.26-9.26s4.16-9.26,9.26-9.26,9.25,4.15,9.25,9.26-4.15,9.26-9.25,9.26Zm0-13.38c-2.27,0-4.12,1.85-4.12,4.12s1.85,4.12,4.12,4.12,4.11-1.85,4.11-4.12-1.85-4.12-4.11-4.12Z"/>
          <path class="cls-1" d="m152.03,111.11c-5.11,0-9.26-4.15-9.26-9.26s4.16-9.26,9.26-9.26,9.26,4.15,9.26,9.26-4.15,9.26-9.26,9.26Zm0-13.38c-2.27,0-4.12,1.85-4.12,4.12s1.85,4.12,4.12,4.12,4.12-1.85,4.12-4.12-1.85-4.12-4.12-4.12Z"/>
        </g>
      </g>
      <g>
        <path class="cls-1" d="m68.99,172.46c-7.57,0-15.16-2.68-21.96-7.76-10.65-7.95-26.6-37.05-27.28-38.28-.67-1.09-17.89-29.46-19.45-42.66-1.28-10.77,1.54-20.72,7.93-28.04.77-.88,1.63-1.77,2.58-2.64,7.21-6.62,18.32-11.77,18.79-11.99.45-.28,1.21-.48,1.97-.48,1.55,0,2.99.83,3.76,2.17l18.66,32.31c.58,1.01.73,2.19.42,3.31-.31,1.11-1.03,2.05-2.04,2.63l-.31.19c-1.53.95-4.21,2.49-8.03,4.63-4.37,2.45-7.82,3.19-10.14,3.33,2.11,4.91,7.23,14.21,12.01,22.13,4.49,8.15,9.98,17.22,13.19,21.53,1.35-2.05,3.75-4.57,7.98-7.08,4.88-2.9,7.03-4.05,7.86-4.47.14-.12.3-.24.51-.36,1.98-1.14,4.79-.4,5.93,1.61l18.66,32.3c1.19,2.07.47,4.73-1.58,5.94-.24.18-10.26,7.23-19.59,10.15-3.23,1.01-6.55,1.53-9.86,1.53ZM31.24,46c-2.55,1.24-11.28,5.65-16.95,10.86-.8.74-1.54,1.5-2.18,2.24-6.95,7.95-7.48,17.47-6.7,24.05,1.43,12.09,18.63,40.41,18.8,40.7.22.4,16.15,29.45,25.9,36.73,8.45,6.31,18.14,8.29,27.2,5.45,7.51-2.36,15.88-7.88,17.89-9.25l-17.86-30.94c-.54.27-2.51,1.31-7.64,4.35-6.71,3.97-7.23,7.46-7.24,7.49-.11.87-.66,1.67-1.45,2.04-.79.38-1.71.38-2.46-.08-4.08-2.51-14.12-20.35-17.1-25.76-3.14-5.19-13.57-22.8-13.7-27.59-.02-.89.41-1.73,1.15-2.21.74-.49,1.68-.56,2.49-.19h0s.59.19,1.63.19h0c1.67,0,4.5-.47,8.49-2.71,3.63-2.03,6.2-3.51,7.62-4.38l-17.9-30.99Z"/>
        <path class="cls-1" d="m91.13,164.96c-.88,0-1.73-.45-2.21-1.26l-21.03-35.39c-.73-1.22-.32-2.8.9-3.53,1.22-.73,2.8-.32,3.52.9l21.03,35.39c.73,1.22.32,2.8-.9,3.52-.41.25-.86.36-1.31.36Z"/>
        <path class="cls-1" d="m43.93,85.51c-.88,0-1.73-.45-2.21-1.26l-21.02-35.37c-.73-1.22-.32-2.8.9-3.53,1.22-.73,2.8-.32,3.52.9l21.02,35.37c.73,1.22.32,2.8-.9,3.52-.41.25-.86.36-1.31.36Z"/>
      </g>
      <g>
        <path class="cls-1" d="m59.66,99.76c-.58,0-1.15-.19-1.61-.57-.79-.64-1.13-1.68-.87-2.67l6.3-23.65c-6.62-7.87-10.26-17.59-10.26-27.51C53.23,20.35,75.64,0,103.19,0s49.97,20.35,49.97,45.36-22.42,45.36-49.97,45.36c-6.45,0-12.74-1.11-18.73-3.31l-23.62,12.07c-.37.19-.77.28-1.17.28ZM103.19,5.14c-24.71,0-44.82,18.04-44.82,40.22,0,9.24,3.41,17.93,9.87,25.14.58.64.79,1.54.57,2.38l-5.17,19.39,19.5-9.96c.66-.33,1.42-.37,2.11-.1,5.71,2.23,11.76,3.37,17.95,3.37,24.72,0,44.83-18.04,44.83-40.22S127.91,5.14,103.19,5.14Z"/>
        <path class="cls-1" d="m98.1,59.27c-.05-.25-.07-.52-.07-.81v-.81c0-2.06.31-3.88.92-5.45.61-1.57,1.37-3.01,2.28-4.31.91-1.3,1.89-2.52,2.95-3.65,1.06-1.13,2.04-2.27,2.95-3.42.91-1.15,1.67-2.38,2.28-3.69.62-1.3.92-2.79.92-4.45,0-2.26-.65-4.1-1.95-5.53-1.3-1.42-3.48-2.13-6.52-2.13-1.77,0-3.56.31-5.38.92-1.82.62-3.39,1.34-4.72,2.17l-1.99-4.57c1.87-1.12,3.83-2.02,5.89-2.69s4.62-.99,7.66-.99c2.16,0,4.06.31,5.71.92,1.64.62,3.02,1.46,4.13,2.54,1.1,1.08,1.93,2.36,2.47,3.83.54,1.48.81,3.05.81,4.72,0,2.21-.33,4.14-.99,5.78-.67,1.65-1.5,3.14-2.51,4.49-1.01,1.35-2.09,2.62-3.24,3.79-1.15,1.18-2.24,2.42-3.24,3.72-1.01,1.31-1.84,2.72-2.51,4.24-.66,1.52-.99,3.31-.99,5.38h-4.86Zm-1.47,9.65c0-1.33.38-2.37,1.14-3.13.76-.76,1.78-1.14,3.06-1.14s2.38.38,3.17,1.14c.78.76,1.18,1.81,1.18,3.13s-.39,2.31-1.18,3.09c-.79.78-1.84,1.18-3.17,1.18s-2.3-.4-3.06-1.18-1.14-1.82-1.14-3.09Z"/>
      </g>
    </g>
  </g>
</svg>