<svg width="50" height="50" viewBox="0 0 50 50" fill="none" xmlns="http://www.w3.org/2000/svg">
<path d="M28.5915 50C28.3827 50 28.1824 49.9171 28.0348 49.7694C27.8871 49.6217 27.8041 49.4214 27.8041 49.2126C27.8041 49.0038 27.8871 48.8035 28.0348 48.6558C28.1824 48.5082 28.3827 48.4252 28.5915 48.4252H28.6585C29.2458 48.4252 29.8091 48.1919 30.2244 47.7766C30.6397 47.3613 30.873 46.798 30.873 46.2106C30.873 45.6233 30.6397 45.06 30.2244 44.6447C29.8091 44.2294 29.2458 43.9961 28.6585 43.9961H27.3789L27.3504 44.1575C27.0162 45.9819 26.4832 47.7642 25.7608 49.4725L25.7411 49.5177C25.6806 49.6598 25.5797 49.7809 25.4509 49.866C25.3221 49.9511 25.1711 49.9965 25.0167 49.9965C24.8623 49.9965 24.7114 49.9511 24.5826 49.866C24.4538 49.7809 24.3528 49.6598 24.2923 49.5177C23.5543 47.7949 23.0096 45.9955 22.6683 44.1526L22.6378 43.9961H19.7343C18.5493 43.9786 17.4188 43.4956 16.5871 42.6514C15.7553 41.8073 15.2891 40.6698 15.2891 39.4848C15.2891 38.2997 15.7553 37.1622 16.5871 36.3181C17.4188 35.4739 18.5493 34.9909 19.7343 34.9734H22.2441V25.7874H21.1614C20.3634 25.7878 19.5793 25.996 18.8861 26.3915C18.193 26.787 17.6149 27.3562 17.2085 28.043C16.8022 28.7298 16.5817 29.5106 16.5688 30.3085C16.5559 31.1064 16.751 31.8939 17.1348 32.5935C17.2009 32.7134 17.2345 32.8483 17.2325 32.9851C17.2304 33.1219 17.1928 33.2558 17.1233 33.3737C17.0537 33.4915 16.9547 33.5892 16.8359 33.6571C16.7171 33.725 16.5827 33.7607 16.4459 33.7608C16.3051 33.7607 16.1669 33.7229 16.0457 33.6512C15.9246 33.5795 15.8248 33.4767 15.7569 33.3534C15.2407 32.4141 14.9781 31.3566 14.9949 30.285C15.0117 29.2134 15.3075 28.1646 15.8529 27.242C16.3984 26.3195 17.1748 25.5549 18.1056 25.0237C19.0365 24.4925 20.0897 24.213 21.1614 24.2126H22.2441V20.0788L21.9193 20.3573C20.7708 21.3379 19.4333 22.0724 17.9896 22.5156C16.546 22.9588 15.0267 23.1011 13.5259 22.9339C12.025 22.7666 10.5744 22.2933 9.26366 21.5432C7.95295 20.7931 6.81002 19.7822 5.90551 18.5729L4.96457 17.315L4.94488 17.2992C4.07251 16.6151 3.36491 15.7437 2.87429 14.7496C2.38367 13.7554 2.12257 12.6637 2.11024 11.5551V11.4803L2.05906 11.4242C0.734962 9.9943 -0.000426606 8.11716 1.85666e-07 6.16833C-5.97535e-05 6.04832 0.0273113 5.92989 0.0800222 5.82208C0.132733 5.71427 0.209389 5.61994 0.304134 5.54628C0.44266 5.43953 0.612513 5.38141 0.787402 5.38093C0.853813 5.38048 0.919995 5.38875 0.984252 5.40554L5.66437 6.59451C6.43247 6.79049 7.22206 6.88969 8.01476 6.88979H14.8868C15.9127 6.88495 16.9058 7.25074 17.6834 7.91986C18.461 8.58898 18.9709 9.51641 19.1191 10.5315C19.2139 11.1726 19.5367 11.7579 20.0283 12.1801C20.5199 12.6022 21.1473 12.8329 21.7953 12.8297H22.2441V10.4675L22.1457 10.4095C21.0874 9.78618 20.2638 8.83181 19.8021 7.69377C19.3404 6.55573 19.2661 5.29731 19.5909 4.11289C19.9157 2.92846 20.6214 1.8839 21.599 1.14054C22.5767 0.397186 23.7719 -0.00362044 25 2.46439e-05C26.4829 0.00184787 27.9046 0.591747 28.9532 1.64034C30.0018 2.68893 30.5917 4.1106 30.5935 5.59353C30.5902 6.56324 30.3362 7.51562 29.8563 8.35824C29.3763 9.20086 28.6867 9.90509 27.8543 10.4026L27.7559 10.4607V12.8229H28.2037C28.8509 12.8265 29.4777 12.5969 29.9693 12.1761C30.461 11.7553 30.7846 11.1715 30.8809 10.5315C31.0302 9.51731 31.5405 8.59105 32.318 7.92292C33.0956 7.2548 34.0881 6.8897 35.1132 6.89471H41.9852C42.7779 6.89461 43.5675 6.79541 44.3356 6.59943L49.0157 5.40554C49.08 5.38875 49.1462 5.38048 49.2126 5.38093C49.3875 5.38141 49.5573 5.43953 49.6959 5.54628C49.7906 5.61994 49.8673 5.71427 49.92 5.82208C49.9727 5.92989 50.0001 6.04832 50 6.16833C50.0007 8.11703 49.2657 9.99415 47.9419 11.4242L47.8907 11.4803V11.5551C47.8784 12.6637 47.6173 13.7554 47.1267 14.7496C46.6361 15.7437 45.9285 16.6151 45.0561 17.2992L45.0364 17.315L44.0945 18.5738C43.1897 19.7829 42.0467 20.7936 40.7359 21.5434C39.4251 22.2932 37.9745 22.7663 36.4737 22.9334C34.9728 23.1004 33.4537 22.9579 32.0101 22.5147C30.5665 22.0714 29.2292 21.3368 28.0807 20.3563L27.7559 20.0788V24.2126H28.6093C30.2316 24.2331 31.7805 24.892 32.9204 26.0464C34.0604 27.2009 34.6996 28.758 34.6996 30.3804C34.6996 32.0029 34.0604 33.56 32.9204 34.7144C31.7805 35.8689 30.2316 36.5278 28.6093 36.5482H27.7559V39.6132C27.7557 40.4787 27.7117 41.3437 27.624 42.2047L27.6014 42.4213H28.6585C29.6635 42.4213 30.6273 42.8205 31.338 43.5312C32.0486 44.2418 32.4478 45.2056 32.4478 46.2106C32.4478 47.2156 32.0486 48.1795 31.338 48.8901C30.6273 49.6008 29.6635 50 28.6585 50H28.5915ZM23.8189 39.5541C23.8171 41.8674 24.1543 44.1684 24.8199 46.3839L25.0098 47.0128L25.1978 46.3829C25.8519 44.1859 26.1834 41.9055 26.1821 39.6132V36.5482H23.8189V39.5541ZM19.7343 36.5482C18.9647 36.5623 18.2315 36.8779 17.6923 37.4271C17.1531 37.9762 16.851 38.7151 16.851 39.4848C16.851 40.2544 17.1531 40.9933 17.6923 41.5424C18.2315 42.0916 18.9647 42.4072 19.7343 42.4213H22.4045L22.3819 42.2038C22.2903 41.3235 22.2443 40.4391 22.2441 39.5541V36.5482H19.7343ZM27.7559 34.9734H28.6093C29.8158 34.9558 30.9669 34.4641 31.8138 33.6047C32.6607 32.7452 33.1355 31.5871 33.1355 30.3804C33.1355 29.1738 32.6607 28.0156 31.8138 27.1562C30.9669 26.2968 29.8158 25.8051 28.6093 25.7874H27.7559V34.9734ZM23.8189 34.9734H26.1811V11.065L25.9508 11.1053C25.3217 11.2155 24.6783 11.2155 24.0492 11.1053L23.8189 11.065V34.9734ZM27.7559 17.8603L28.5935 18.689C30.3626 20.4477 32.7575 21.4322 35.252 21.4262C37.4778 21.4222 39.6318 20.6375 41.3386 19.2087L41.8307 18.7992L41.1959 18.8612C40.9498 18.8858 40.7037 18.8977 40.4646 18.8977H38.811C38.6022 18.8977 38.4019 18.8147 38.2542 18.667C38.1066 18.5194 38.0236 18.3191 38.0236 18.1103C38.0236 17.9014 38.1066 17.7011 38.2542 17.5535C38.4019 17.4058 38.6022 17.3229 38.811 17.3229H40.4596C41.6865 17.3228 42.8823 16.9374 43.8783 16.2211C44.8744 15.5048 45.6203 14.4938 46.0108 13.3307L46.1644 12.875L45.7352 13.0906C44.6534 13.6415 43.4562 13.9276 42.2421 13.9252H40.2067C39.9979 13.9252 39.7976 13.8423 39.6499 13.6946C39.5022 13.5469 39.4193 13.3466 39.4193 13.1378C39.4193 12.929 39.5022 12.7287 39.6499 12.581C39.7976 12.4334 39.9979 12.3504 40.2067 12.3504H42.2421C43.6463 12.3431 45.0068 11.8611 46.1025 10.9829C47.1982 10.1047 47.9647 8.88175 48.2776 7.51282L48.3474 7.20081L44.7234 8.12207C43.8285 8.34955 42.9086 8.46461 41.9852 8.46459H35.1132C34.465 8.46145 33.8375 8.69226 33.3459 9.11464C32.8543 9.53701 32.5316 10.1226 32.437 10.7638C32.2873 11.7777 31.7768 12.7037 30.9994 13.3715C30.2219 14.0394 29.2297 14.4045 28.2047 14.3996H27.7559V17.8603ZM8.66142 19.2087C10.4677 20.7265 12.7759 21.5146 15.1332 21.4185C17.4905 21.3223 19.7269 20.3488 21.4035 18.689L22.2411 17.8603V14.3996H21.7923C20.7673 14.4047 19.775 14.0397 18.9975 13.3718C18.22 12.7039 17.7096 11.7778 17.56 10.7638C17.4656 10.1231 17.1433 9.53792 16.6523 9.11561C16.1612 8.6933 15.5344 8.46216 14.8868 8.46459H8.01476C7.09135 8.46461 6.17153 8.34955 5.27657 8.12207L1.65256 7.20081L1.72244 7.51282C2.0349 8.88211 2.80127 10.1055 3.897 10.9841C4.99273 11.8627 6.3534 12.3449 7.75787 12.3524H9.79331C10.0021 12.3524 10.2024 12.4353 10.3501 12.583C10.4978 12.7307 10.5807 12.931 10.5807 13.1398C10.5807 13.3486 10.4978 13.5489 10.3501 13.6966C10.2024 13.8442 10.0021 13.9272 9.79331 13.9272H7.75787C6.54367 13.9289 5.34643 13.6422 4.26476 13.0906L3.83858 12.875L3.99213 13.3307C4.38255 14.4934 5.12817 15.5042 6.1238 16.2205C7.11944 16.9368 8.31483 17.3223 9.54134 17.3229H11.189C11.3978 17.3229 11.5981 17.4058 11.7458 17.5535C11.8934 17.7011 11.9764 17.9014 11.9764 18.1103C11.9764 18.3191 11.8934 18.5194 11.7458 18.667C11.5981 18.8147 11.3978 18.8977 11.189 18.8977H9.54134C9.30118 18.8977 9.05512 18.8858 8.80906 18.8612L8.17421 18.7992L8.66142 19.2087ZM25 1.57483C24.2052 1.57483 23.4282 1.81052 22.7673 2.2521C22.1065 2.69368 21.5914 3.32132 21.2872 4.05564C20.983 4.78996 20.9035 5.59799 21.0585 6.37754C21.2136 7.15709 21.5963 7.87315 22.1583 8.43518C22.7204 8.9972 23.4364 9.37995 24.216 9.53501C24.9955 9.69007 25.8036 9.61049 26.5379 9.30632C27.2722 9.00216 27.8998 8.48707 28.3414 7.8262C28.783 7.16533 29.0187 6.38835 29.0187 5.59353C29.0174 4.5281 28.5936 3.50669 27.8402 2.75332C27.0868 1.99995 26.0654 1.57613 25 1.57483Z" fill="#E3B589"/>
<path d="M21.0632 50.0001C20.8809 50.0002 20.7044 49.9371 20.5635 49.8215C20.4226 49.706 20.3261 49.5452 20.2906 49.3665C20.255 49.1878 20.2825 49.0023 20.3683 48.8416C20.4542 48.6809 20.5932 48.5549 20.7615 48.4852C20.9298 48.4155 21.1171 48.4063 21.2915 48.4592C21.4658 48.5122 21.6164 48.6239 21.7176 48.7754C21.8188 48.927 21.8643 49.1089 21.8464 49.2902C21.8284 49.4715 21.7482 49.641 21.6192 49.7698C21.4713 49.9165 21.2716 49.9993 21.0632 50.0001Z" fill="#E3B589"/>
</svg>
