<svg width="50" height="50" viewBox="0 0 50 50" fill="none" xmlns="http://www.w3.org/2000/svg">
<path d="M48.4375 31.25H47.6562V28.125C47.6562 26.8328 46.6047 25.7812 45.3125 25.7812C44.0203 25.7812 42.9688 26.8328 42.9688 28.125H39.8438V25.7812C39.8438 25.3492 39.4937 25 39.0625 25H31.1469L31.9 23.8711C31.9852 23.743 32.0312 23.5914 32.0312 23.4375V21.0938C32.4625 21.0938 32.8125 20.7445 32.8125 20.3125V14.0625C32.8125 11.9086 31.0602 10.1562 28.9062 10.1562H28.2742C29.1445 9.1625 29.6875 7.77969 29.6875 6.25C29.6875 3.23516 27.5852 0.78125 25 0.78125C22.4148 0.78125 20.3125 3.23516 20.3125 6.25C20.3125 7.77969 20.8555 9.1625 21.7258 10.1562H21.0938C18.9398 10.1562 17.1875 11.9086 17.1875 14.0625V20.3125C17.1875 20.7445 17.5375 21.0938 17.9688 21.0938V23.4375C17.9688 23.5914 18.0148 23.743 18.1 23.8711L18.8531 25H14.0625C13.1477 25 12.3164 25.3289 11.65 25.8578C11.2516 23.607 8.98516 21.875 6.25 21.875C3.23438 21.875 0.78125 23.9773 0.78125 26.5625C0.78125 29.1477 3.23438 31.25 6.25 31.25C7.83125 31.25 9.25313 30.6687 10.2523 29.7461C10.375 30.3039 10.6242 30.8094 10.957 31.25H6.25H1.5625C1.13125 31.25 0.78125 31.5992 0.78125 32.0312V35.1562C0.78125 35.5883 1.13125 35.9375 1.5625 35.9375H3.90625V48.4375C3.90625 48.8695 4.25625 49.2188 4.6875 49.2188H7.8125C8.24375 49.2188 8.59375 48.8695 8.59375 48.4375V35.9375H19.5312V42.1875C19.5312 42.6195 19.8813 42.9688 20.3125 42.9688H21.0938V46.0938H21.1141C20.618 46.7484 20.3125 47.5547 20.3125 48.4375C20.3125 48.8695 20.6625 49.2188 21.0938 49.2188H28.9062C29.3375 49.2188 29.6875 48.8695 29.6875 48.4375C29.6875 47.5547 29.382 46.7484 28.8859 46.0938H28.9062V42.9688H29.6875C30.1187 42.9688 30.4688 42.6195 30.4688 42.1875V39.5453L32.6586 38.4508L33.8227 39.6148C34.1281 39.9203 34.6219 39.9203 34.9273 39.6148L36.0914 38.4508L38.7125 39.7617C38.8234 39.8164 38.943 39.8438 39.0625 39.8438C39.2055 39.8438 39.3477 39.8047 39.4734 39.7273C39.7031 39.5844 39.8438 39.3336 39.8438 39.0625V35.9375H41.4062V48.4375C41.4062 48.8695 41.7562 49.2188 42.1875 49.2188H45.3125C45.7437 49.2188 46.0938 48.8695 46.0938 48.4375V35.9375H48.4375C48.8687 35.9375 49.2188 35.5883 49.2188 35.1562V32.0312C49.2188 31.5992 48.8687 31.25 48.4375 31.25ZM30.4688 23.2008L29.2695 25H27.3438L28.75 23.125C28.8516 22.9898 28.9062 22.8258 28.9062 22.6562V21.0938H30.4688V23.2008ZM21.875 6.25C21.875 4.09609 23.2766 2.34375 25 2.34375C26.7234 2.34375 28.125 4.09609 28.125 6.25C28.125 8.40391 26.7234 10.1562 25 10.1562C23.2766 10.1562 21.875 8.40391 21.875 6.25ZM18.75 14.0625C18.75 12.7703 19.8016 11.7188 21.0938 11.7188H28.9062C30.1984 11.7188 31.25 12.7703 31.25 14.0625V19.5312H28.9062V16.4062H27.3438V20.3125V22.3961L25.3906 25H24.6094L22.6562 22.3961V20.3125V16.4062H21.0938V19.5312H18.75V14.0625ZM19.5312 23.2008V21.0938H21.0938V22.6562C21.0938 22.8258 21.1484 22.9898 21.25 23.125L22.6562 25H20.7305L19.5312 23.2008ZM6.25 29.6875C4.09609 29.6875 2.34375 28.2859 2.34375 26.5625C2.34375 24.8391 4.09609 23.4375 6.25 23.4375C8.40391 23.4375 10.1562 24.8391 10.1562 26.5625C10.1562 28.2859 8.40391 29.6875 6.25 29.6875ZM11.7188 28.9062C11.7188 27.6141 12.7703 26.5625 14.0625 26.5625H28.9062V31.25H14.8438H14.0625C12.7703 31.25 11.7188 30.1984 11.7188 28.9062ZM2.34375 32.8125H14.0625H14.8438H28.9062V34.375H2.34375V32.8125ZM7.03125 47.6562H5.46875V35.9375H7.03125V47.6562ZM24.2188 35.9375V41.4062H21.0938V35.9375H24.2188ZM24.2188 42.9688V44.5312C23.6625 44.5312 23.1359 44.6516 22.6562 44.8625V42.9688H24.2188ZM22.0086 47.6562C22.3312 46.7469 23.2 46.0938 24.2188 46.0938V47.6562H22.0086ZM25.7812 47.6562V46.0938C26.8 46.0938 27.6687 46.7469 27.9914 47.6562H25.7812ZM27.3438 44.8625C26.8641 44.6516 26.3375 44.5312 25.7812 44.5312V42.9688H27.3438V44.8625ZM28.9062 41.4062H25.7812V35.9375H28.9062V38.2812V39.0625V41.4062ZM38.2812 37.7984L36.2867 36.8016C35.9852 36.6508 35.6227 36.7109 35.3852 36.9484L34.375 37.9578L33.3648 36.9477C33.2148 36.7977 33.0148 36.7188 32.8125 36.7188C32.6945 36.7188 32.5742 36.7453 32.4633 36.8008L30.4688 37.7984V26.5625H33.5938V35.9375H35.1562V26.5625H38.2812V37.7984ZM43.75 29.6875C44.1812 29.6875 44.5312 29.3383 44.5312 28.9062V28.125C44.5312 27.6937 44.882 27.3438 45.3125 27.3438C45.743 27.3438 46.0938 27.6937 46.0938 28.125V31.25H39.8438V29.6875H43.75ZM44.5312 47.6562H42.9688V35.9375H44.5312V47.6562ZM47.6562 34.375H39.8438V32.8125H47.6562V34.375Z" fill="#E3B589"/>
</svg>
