<svg width="50" height="50" viewBox="0 0 50 50" fill="none" xmlns="http://www.w3.org/2000/svg">
<path d="M20.3239 38.7642L20.9131 37.2172H23.1805L23.7638 38.7628L25.1343 38.2456L22.6749 31.7285L21.4357 31.7295L18.9551 38.2428L20.3239 38.7642ZM22.6277 35.7523H21.4711L22.0521 34.227L22.6277 35.7523Z" fill="#E3B589"/>
<path d="M26.6055 31.7295V38.6237H29.973V37.1589H28.0703V31.7295H26.6055Z" fill="#E3B589"/>
<path d="M43.7446 38.6888L43.7527 35.397L45.7558 32.3201L44.5282 31.5209L43.0198 33.8378L41.4979 31.5068L40.2715 32.3077L42.2879 35.396L42.2798 38.6852L43.7446 38.6888Z" fill="#E3B589"/>
<path d="M12.8888 36.2008C12.8888 37.5146 14.0729 38.6262 15.4742 38.6279H15.4784C16.2184 38.6279 16.9339 38.3371 17.442 37.8298C17.8854 37.3871 18.1295 36.8071 18.1295 36.1967V31.729H16.6646V36.1967C16.6646 36.4218 16.5779 36.6224 16.4069 36.7932C16.1783 37.0214 15.8227 37.163 15.4781 37.163C15.4775 37.163 15.4769 37.163 15.4762 37.163C14.9452 37.1623 14.3535 36.7669 14.3535 36.2007V31.729H12.8887V36.2008H12.8888Z" fill="#E3B589"/>
<path d="M37.3265 38.6283V33.1943H38.8329V31.7295H34.3672V33.1943H35.8616V38.6283H37.3265Z" fill="#E3B589"/>
<path d="M7.9748 31.7295C6.07275 31.7295 4.52539 33.277 4.52539 35.179C4.52539 37.0811 6.07285 38.6283 7.9748 38.6283C8.67236 38.6283 9.32178 38.4195 9.86513 38.0621L10.7128 38.9098L11.7485 37.874L10.8915 37.0171C11.2283 36.4846 11.4241 35.8544 11.4241 35.1791C11.4242 33.2769 9.87685 31.7295 7.9748 31.7295ZM7.9748 37.1635C6.88047 37.1635 5.99023 36.2732 5.99023 35.179C5.99023 34.0847 6.88056 33.1943 7.9748 33.1943C9.06904 33.1943 9.95937 34.0847 9.95937 35.179C9.95937 35.4465 9.90547 35.7015 9.80908 35.9346L8.97431 35.0999L7.93857 36.1356L8.78955 36.9866C8.54062 37.0992 8.26533 37.1635 7.9748 37.1635Z" fill="#E3B589"/>
<path d="M31.4375 31.7295H32.9023V38.6284H31.4375V31.7295Z" fill="#E3B589"/>
<path d="M20.2715 22.5107H21.7363V29.4097H20.2715V22.5107Z" fill="#E3B589"/>
<path d="M13.582 22.5107V29.4097H15.0469V26.5994H17.3425V29.4097H18.8073V22.5107H17.3425V25.1346H15.0469V22.5107H13.582Z" fill="#E3B589"/>
<path d="M23.2012 25.9602C23.2012 27.8622 24.7486 29.4096 26.6507 29.4096C28.4629 29.4096 29.7286 27.9911 29.7286 25.9602V25.2277H26.6382V26.6926H28.1697C27.9884 27.3644 27.5281 27.9447 26.6508 27.9447C25.5564 27.9447 24.6661 27.0545 24.6661 25.9602C24.6661 24.8658 25.5564 23.9756 26.6508 23.9756C27.0485 23.9756 27.432 24.0927 27.7599 24.3142L28.3667 24.7241L29.1867 23.5104L28.5798 23.1003C28.0089 22.7146 27.3418 22.5107 26.6507 22.5107C24.7485 22.5106 23.2012 24.0581 23.2012 25.9602Z" fill="#E3B589"/>
<path d="M31.1934 22.604V25.2279V26.6928V29.5029H32.6582V26.6928H34.9537V29.5029H36.4186V26.6928H36.4187V25.2279H36.4186V22.604H34.9537V25.2279H32.6582V22.604H31.1934Z" fill="#E3B589"/>
<path d="M25 48.365C12.0227 48.365 1.46484 41.0521 1.46484 32.0635C1.46484 29.7565 2.15078 27.5255 3.50371 25.4322C4.82822 23.383 6.71758 21.5707 9.11943 20.0458L8.33428 18.8091C3.0377 22.172 0 27.0029 0 32.0636C0 36.859 2.63496 41.3496 7.41943 44.7079C12.1251 48.0109 18.3687 49.83 25 49.83C30.0327 49.83 34.8835 48.775 39.028 46.7792L38.3925 45.4594C34.4451 47.3603 29.814 48.365 25 48.365Z" fill="#E3B589"/>
<path d="M42.5815 19.4194C37.8758 16.1164 31.6323 14.2974 25.001 14.2974C19.3755 14.2974 14.0653 15.5893 9.64453 18.0332L10.3533 19.3151C14.5577 16.9908 19.6228 15.7622 25.0011 15.7622C37.9784 15.7622 48.5362 23.075 48.5362 32.0637C48.5362 36.2495 46.2353 40.2332 42.0572 43.2809L42.9205 44.4644C47.4864 41.1337 50.001 36.7297 50.001 32.0637C50.001 27.2682 47.3661 22.7777 42.5815 19.4194Z" fill="#E3B589"/>
<path d="M39.6621 44.8232L40.9102 44.0557L41.6778 45.3038L40.4297 46.0714L39.6621 44.8232Z" fill="#E3B589"/>
<path d="M25.7324 17.4131H27.1973V18.8779H25.7324V17.4131Z" fill="#E3B589"/>
<path d="M22.8027 17.4131H24.2676V18.8779H22.8027V17.4131Z" fill="#E3B589"/>
<path d="M21.0903 12.2044L25.0005 10.0517L28.9105 12.2044L28.0715 7.82041L31.3271 4.7669L26.8984 4.21016L25.0005 0.17041L23.1024 4.21026L18.6738 4.76699L21.9294 7.82051L21.0903 12.2044ZM24.0854 5.56309L25.0005 3.61524L25.9156 5.56309L28.0509 5.83145L26.4812 7.30371L26.8857 9.41739L25.0005 8.3795L23.1152 9.41739L23.5198 7.30371L21.9501 5.83145L24.0854 5.56309Z" fill="#E3B589"/>
<path d="M38.1457 12.3243L41.1761 15.6016L41.7641 11.1769L45.8172 9.30742L41.7909 7.38086L41.2654 2.94824L38.1891 6.18232L33.8111 5.31211L35.9362 9.2374L33.7559 13.1321L38.1457 12.3243ZM36.5839 7.35693L38.6945 7.77646L40.1778 6.21709L40.4312 8.3543L42.3725 9.2831L40.4182 10.1845L40.1347 12.3177L38.6736 10.7376L36.5571 11.1272L37.6084 9.24941L36.5839 7.35693Z" fill="#E3B589"/>
<path d="M8.8248 15.6012L11.8552 12.324L16.2449 13.1319L14.0647 9.2373L16.1896 5.31211L11.8117 6.18213L8.73535 2.94824L8.20996 7.38076L4.18359 9.30713L8.23672 11.1767L8.8248 15.6012ZM9.56972 8.354L9.82304 6.2168L11.3063 7.77607L13.4172 7.35654L12.3926 9.24912L13.4437 11.127L11.3273 10.7373L9.86621 12.3175L9.58271 10.1842L7.62851 9.28291L9.56972 8.354Z" fill="#E3B589"/>
</svg>
