<svg width="50" height="50" viewBox="0 0 50 50" fill="none" xmlns="http://www.w3.org/2000/svg">
<path d="M24.9993 -0.05C24.5115 -0.05 24.116 0.345511 24.116 0.833333V5.83333C24.116 6.32116 24.5115 6.71667 24.9993 6.71667C25.4872 6.71667 25.8827 6.32116 25.8827 5.83333V0.833333C25.8827 0.345511 25.4872 -0.05 24.9993 -0.05Z" fill="#E3B589" stroke="#E3B589" stroke-width="0.1"/>
<path d="M21.8194 1.86791L21.8194 1.86787L21.6744 1.04706C21.6744 1.04705 21.6744 1.04704 21.6744 1.04704C21.5897 0.566533 21.1316 0.245555 20.6511 0.330245C20.1705 0.414932 19.8496 0.87304 19.9342 1.35358L19.9343 1.3536L20.0793 2.17443L20.0793 2.17444C20.1538 2.59623 20.5201 2.90374 20.9485 2.90407L20.9486 2.90407C20.9972 2.90396 21.0456 2.90002 21.0936 2.89224V2.89234L21.1023 2.89081C21.5828 2.80635 21.9039 2.34845 21.8194 1.86791Z" fill="#E3B589" stroke="#E3B589" stroke-width="0.1"/>
<path d="M17.5522 1.95726L17.5522 1.95746C17.5563 1.968 17.56 1.97847 17.5637 1.98895L17.8485 2.77193L17.8485 2.77193L17.8016 2.78903C17.959 3.22153 17.7359 3.69976 17.3034 3.85715L17.5522 1.95726ZM17.5522 1.95726C17.3764 1.50213 16.865 1.27566 16.4099 1.45145C15.9549 1.62717 15.7285 2.13821 15.9039 2.59323L16.1879 3.37525L17.5522 1.95726Z" fill="#E3B589" stroke="#E3B589" stroke-width="0.1"/>
<path d="M10.1414 5.91942L10.1414 5.91943L10.6772 6.55776C10.6772 6.55776 10.6772 6.55776 10.6772 6.55776C10.9909 6.93141 10.9423 7.48856 10.5687 7.80226C10.5687 7.80226 10.5687 7.80226 10.5687 7.80226L10.1414 5.91942ZM10.1414 5.91942L10.1407 5.91865M10.1414 5.91942L10.1407 5.91865M10.1407 5.91865C9.82888 5.56234 9.2916 5.51518 8.92258 5.81187M10.1407 5.91865L8.78742 7.05374M8.78742 7.05374L8.78743 7.05373C8.4818 6.67345 8.54231 6.1175 8.92258 5.81187M8.78742 7.05374L8.78811 7.05455M8.78742 7.05374L8.78811 7.05455M8.92258 5.81187L8.9539 5.85084L8.92258 5.81187ZM8.78811 7.05455L9.3239 7.69284L8.78811 7.05455Z" fill="#E3B589" stroke="#E3B589" stroke-width="0.1"/>
<path d="M5.83659 8.8937C5.51527 9.26084 5.55249 9.81889 5.91962 10.1402L5.91961 10.1402L5.9204 10.1409L6.55873 10.6767C6.71763 10.8101 6.91837 10.8832 7.12582 10.8834H7.12588C7.387 10.8834 7.63477 10.7679 7.80261 10.5679C8.1163 10.1942 8.0675 9.63702 7.69386 9.32344C7.69385 9.32344 7.69385 9.32344 7.69385 9.32344L7.05552 8.7876L7.05553 8.7876L7.0547 8.78693C6.68569 8.49035 6.1484 8.53738 5.83659 8.8937ZM5.83659 8.8937L5.87421 8.92663L5.83659 8.8937Z" fill="#E3B589" stroke="#E3B589" stroke-width="0.1"/>
<path d="M3.90692 17.3189L3.90692 17.3189C3.78039 17.6707 3.4463 17.9046 3.07257 17.9033L3.90692 17.3189ZM3.90692 17.3189C4.07198 16.8599 3.83374 16.3539 3.37467 16.1888C3.37464 16.1888 3.37462 16.1888 3.3746 16.1888L2.5927 15.9048M3.90692 17.3189L2.5927 15.9048M2.5927 15.9048C2.58236 15.9009 2.57162 15.8969 2.56072 15.8933L2.54476 15.9406M2.5927 15.9048L2.54476 15.9406M2.54476 15.9406L2.56096 15.8933C2.09941 15.7353 1.59712 15.9816 1.43923 16.4431M2.54476 15.9406L1.43923 16.4431M1.43923 16.4431C1.28127 16.9045 1.52729 17.4066 1.98854 17.5647M1.43923 16.4431L1.98854 17.5647M1.98854 17.5647L2.77128 17.8494C2.77129 17.8495 2.77131 17.8495 2.77133 17.8495C2.86784 17.8849 2.96975 17.9031 3.07254 17.9033C3.07253 17.9033 3.07252 17.9033 3.0725 17.9033L1.98854 17.5647Z" fill="#E3B589" stroke="#E3B589" stroke-width="0.1"/>
<path d="M1.35407 19.9333L1.35409 19.9333L2.17485 20.0783L2.17492 20.0783L1.35407 19.9333ZM1.35407 19.9333C0.873528 19.8486 0.41542 20.1696 0.330733 20.6501C0.246044 21.1306 0.567021 21.5887 1.04753 21.6734L1.35407 19.9333Z" fill="#E3B589" stroke="#E3B589" stroke-width="0.1"/>
<path d="M1.86893 28.1813L1.86891 28.1813L1.04815 28.3263L1.05677 28.3756L1.04807 28.3263L1.04811 28.3263C0.625662 28.4003 0.317519 28.7671 0.317188 29.1959L0.317188 29.196C0.316967 29.6838 0.712145 30.0795 1.20008 30.0797L1.20021 30.0797C1.25183 30.0796 1.30347 30.0752 1.35437 30.0665L1.35464 30.0665L2.17545 29.9215C2.17546 29.9215 2.17546 29.9215 2.17547 29.9215C2.65597 29.8368 2.97695 29.3787 2.89226 28.8981C2.80758 28.4176 2.34947 28.0966 1.86893 28.1813Z" fill="#E3B589" stroke="#E3B589" stroke-width="0.1"/>
<path d="M1.98904 32.4358C1.63945 32.5627 1.40681 32.8949 1.40703 33.2669L1.40703 33.2669C1.40747 33.7547 1.8032 34.1499 2.29114 34.1494L2.2912 34.1494C2.39419 34.1492 2.49641 34.131 2.59322 34.0956C2.59324 34.0956 2.59326 34.0956 2.59328 34.0956L3.37566 33.8114L3.37567 33.8114C3.83422 33.6448 4.07096 33.138 3.90434 32.6795C3.73772 32.2209 3.23091 31.9842 2.77235 32.1508L2.77233 32.1508L1.98904 32.4358ZM1.98904 32.4358L2.00609 32.4828M1.98904 32.4358L1.989 32.4358L2.00609 32.4828M2.00609 32.4828L2.78943 32.1978M2.00609 32.4828C1.6763 32.6025 1.45682 32.9159 1.45703 33.2668C1.45745 33.727 1.83078 34.0999 2.29109 34.0994C2.38828 34.0992 2.48474 34.082 2.57609 34.0486L2.78943 32.1978M2.78943 32.1978L2.78943 32.1978L2.78943 32.1978Z" fill="#E3B589" stroke="#E3B589" stroke-width="0.1"/>
<path d="M7.8038 39.4055L7.80381 39.4055C8.12498 39.7727 8.08781 40.3307 7.72072 40.6519C7.7207 40.6519 7.72068 40.652 7.72066 40.652L7.8038 39.4055ZM7.8038 39.4055C7.48271 39.0385 6.92484 39.0012 6.5577 39.322M7.8038 39.4055L6.5577 39.322M6.48779 41.4176H6.48773C5.99992 41.4176 5.60441 41.0222 5.6043 40.5344L6.48779 41.4176ZM6.48779 41.4176C6.69524 41.4173 6.89598 41.3443 7.05488 41.2109M6.48779 41.4176L7.05488 41.2109M6.5577 39.322L5.91977 39.8576C5.91976 39.8576 5.91976 39.8576 5.91975 39.8576C5.71968 40.0254 5.60419 40.2732 5.6043 40.5344L6.5577 39.322ZM7.05488 41.2109L7.69282 40.6754L7.05488 41.2109Z" fill="#E3B589" stroke="#E3B589" stroke-width="0.1"/>
<path d="M8.78885 42.9454L8.78889 42.9454L9.32439 42.3074C9.63009 41.9275 10.1858 41.8672 10.5659 42.1727C10.9462 42.4783 11.0067 43.0344 10.7011 43.4146L10.701 43.4146C10.6936 43.4238 10.6858 43.4332 10.6776 43.4426L10.1422 44.0805L10.1421 44.0805L10.1039 44.0483C9.94552 44.237 9.71177 44.3458 9.46552 44.3458L8.78885 42.9454ZM8.78885 42.9454C8.65591 43.1042 8.58292 43.3047 8.58281 43.5118L8.78885 42.9454Z" fill="#E3B589" stroke="#E3B589" stroke-width="0.1"/>
<path d="M15.9023 47.7096L15.8523 47.7096C15.8525 48.1974 16.2481 48.5928 16.7359 48.5927H16.7359C17.107 48.5925 17.4384 48.3601 17.5654 48.0115L17.5654 48.0114L17.8504 47.2281L17.8504 47.2281C18.017 46.7695 17.7803 46.2627 17.3217 46.0961C16.8631 45.9295 16.3563 46.1662 16.1897 46.6248L16.1897 46.6248L15.9056 47.4073C15.9056 47.4073 15.9056 47.4073 15.9056 47.4073C15.8704 47.5042 15.8522 47.6064 15.8523 47.7096L15.9023 47.7096ZM15.9023 47.7096C15.9022 47.6123 15.9193 47.5158 15.9526 47.4244L16.2367 46.6419C16.3939 46.2092 16.872 45.9859 17.3046 46.1431C17.7372 46.3003 17.9606 46.7784 17.8034 47.211L17.5184 47.9944C17.3986 48.3233 17.086 48.5425 16.7359 48.5427C16.2757 48.5428 15.9024 48.1698 15.9023 47.7096Z" fill="#E3B589" stroke="#E3B589" stroke-width="0.1"/>
<path d="M19.9334 48.646L19.9342 48.6462L20.0792 47.8254C20.0792 47.8254 20.0792 47.8254 20.0792 47.8254C20.1639 47.3449 20.622 47.0239 21.1025 47.1086C21.583 47.1933 21.904 47.6514 21.8193 48.1319L21.8193 48.1319L21.6743 48.9527L21.6743 48.9527L21.6251 48.944C21.5551 49.3423 21.2094 49.6328 20.8051 49.6332L19.9334 48.646ZM19.9334 48.646V48.6507C19.8517 49.1295 20.1722 49.5848 20.6511 49.6691C20.6512 49.6691 20.6513 49.6691 20.6514 49.6691L20.6601 49.6199L19.9334 48.646Z" fill="#E3B589" stroke="#E3B589" stroke-width="0.1"/>
<path d="M28.3273 48.9527C28.4015 49.3748 28.7679 49.6828 29.1965 49.6832H29.1965C29.2475 49.6832 29.2984 49.6787 29.3486 49.6694L29.3503 49.6691C29.8308 49.5847 30.1519 49.1268 30.0674 48.6462L30.0674 48.6462L29.9224 47.8254M28.3273 48.9527L28.3765 48.944M28.3273 48.9527L28.3273 48.9527L28.3765 48.944M28.3273 48.9527L28.1823 48.1319L28.1823 48.1319C28.0976 47.6514 28.4186 47.1933 28.8991 47.1086C29.3796 47.0239 29.8378 47.3449 29.9224 47.8254M28.3765 48.944C28.4465 49.3423 28.7922 49.6328 29.1965 49.6332C29.2452 49.6332 29.2937 49.6288 29.3415 49.6199L28.3765 48.944ZM29.9224 47.8254L29.8732 47.8341M29.9224 47.8254L29.9224 47.8254L29.8732 47.8341M29.8732 47.8341C29.7933 47.3807 29.3611 47.0779 28.9078 47.1578C28.4545 47.2377 28.1516 47.6699 28.2315 48.1232L29.8732 47.8341Z" fill="#E3B589" stroke="#E3B589" stroke-width="0.1"/>
<path d="M33.8105 46.6248L33.8105 46.6248L34.0946 47.4073L33.8105 46.6248ZM33.8105 46.6248C33.6439 46.1662 33.1371 45.9295 32.6785 46.0961C32.2199 46.2627 31.9832 46.7695 32.1498 47.2281L32.1498 47.2281M33.8105 46.6248L32.1498 47.2281M32.1498 47.2281L32.4348 48.0114L32.4348 48.0115M32.1498 47.2281L32.4348 48.0115M32.4348 48.0115C32.5618 48.3603 32.8932 48.5925 33.2643 48.5927H33.2643M32.4348 48.0115L33.2643 48.5927M33.2643 48.5927C33.3674 48.5927 33.4698 48.5747 33.5666 48.5395L33.5666 48.5395M33.2643 48.5927L33.5666 48.5395M33.5666 48.5395C34.0251 48.3726 34.2615 47.8657 34.0947 47.4073L33.5666 48.5395Z" fill="#E3B589" stroke="#E3B589" stroke-width="0.1"/>
<path d="M41.2113 42.9453L41.2114 42.9453C41.5246 43.3193 41.4753 43.8765 41.1012 44.1897L41.1012 44.1897C40.9424 44.3226 40.7419 44.3956 40.5348 44.3958M41.2113 42.9453L40.6524 42.2795C40.6524 42.2795 40.6524 42.2795 40.6524 42.2794C40.3312 41.9124 39.7731 41.8752 39.406 42.1964C39.0389 42.5174 39.0016 43.0753 39.3226 43.4425L39.858 44.0803C39.858 44.0803 39.858 44.0803 39.858 44.0803C40.0254 44.281 40.2735 44.3966 40.5348 44.3958M41.2113 42.9453L40.6758 42.3073L41.2113 42.9453ZM40.5348 44.3958C40.5348 44.3958 40.5348 44.3958 40.5347 44.3958L40.5347 44.3458L40.5349 44.3958C40.5349 44.3958 40.5348 44.3958 40.5348 44.3958Z" fill="#E3B589" stroke="#E3B589" stroke-width="0.1"/>
<path d="M43.4141 39.2987L43.4141 39.2987C43.0338 38.993 42.4778 39.0535 42.1722 39.4338C41.8667 39.8139 41.927 40.3696 42.3069 40.6753L42.9449 41.2108C43.1038 41.3442 43.3045 41.4173 43.512 41.4175H43.512C43.7731 41.4175 44.0209 41.302 44.1887 41.1021L44.1887 41.1021C44.5023 40.7283 44.4535 40.1711 44.0799 39.8576C44.0799 39.8576 44.0799 39.8576 44.0799 39.8576L43.4419 39.322C43.4329 39.3142 43.4237 39.3064 43.4141 39.2987Z" fill="#E3B589" stroke="#E3B589" stroke-width="0.1"/>
<path d="M47.7103 34.0994C48.0612 34.0998 48.3746 33.8803 48.4944 33.5504L47.4253 34.0486C47.5167 34.082 47.613 34.0992 47.7103 34.0994ZM47.4081 34.0956C47.4082 34.0956 47.4082 34.0956 47.4082 34.0956L48.0124 32.4358L48.0124 32.4358L47.2291 32.1508L47.2291 32.1508C46.7705 31.9842 46.2637 32.2209 46.0971 32.6795C45.9305 33.138 46.1672 33.6448 46.6258 33.8114L46.6258 33.8114L47.4081 34.0956Z" fill="#E3B589" stroke="#E3B589" stroke-width="0.1"/>
<path d="M48.1314 28.1813L48.1314 28.1813L48.9522 28.3263L48.9523 28.3263L48.1314 28.1813ZM48.1314 28.1813C47.6509 28.0966 47.1928 28.4176 47.1081 28.8981C47.0234 29.3787 47.3444 29.8368 47.8249 29.9215L48.1314 28.1813Z" fill="#E3B589" stroke="#E3B589" stroke-width="0.1"/>
<path d="M48.6463 19.9333L48.6463 19.9333L47.8255 20.0783L47.8341 20.1275L47.8254 20.0783L47.8255 20.0783C47.4027 20.1524 47.0944 20.5196 47.0945 20.9488L47.0945 20.9488C47.0948 21.4366 47.4904 21.8319 47.9783 21.8317L47.9784 21.8317C48.0298 21.8316 48.0811 21.8272 48.1317 21.8185L48.132 21.8184L48.9528 21.6734C48.9528 21.6734 48.9528 21.6734 48.9528 21.6734C49.4333 21.5887 49.7543 21.1306 49.6696 20.6501C49.5849 20.1696 49.1268 19.8486 48.6463 19.9333Z" fill="#E3B589" stroke="#E3B589" stroke-width="0.1"/>
<path d="M46.9263 17.9034C47.0291 17.9031 47.131 17.8849 47.2275 17.8495C47.2275 17.8495 47.2276 17.8495 47.2276 17.8495L48.0102 17.5647C48.0212 17.561 48.0318 17.5571 48.042 17.5531L48.042 17.5531C48.4972 17.3774 48.7236 16.866 48.5479 16.4109C48.3723 15.9559 47.8612 15.7294 47.4062 15.9049L46.6243 16.1888C46.6243 16.1888 46.6242 16.1888 46.6242 16.1888C46.2726 16.3153 46.0385 16.6495 46.0398 17.0232L46.0398 17.0232C46.0416 17.511 46.4385 17.9051 46.9263 17.9034ZM46.9263 17.9034C46.9263 17.9034 46.9263 17.9034 46.9263 17.9034L46.9262 17.8534L46.9264 17.9034C46.9264 17.9034 46.9264 17.9034 46.9263 17.9034Z" fill="#E3B589" stroke="#E3B589" stroke-width="0.1"/>
<path d="M42.9456 8.78693L42.9456 8.78694C43.3259 8.48131 43.8819 8.54182 44.1875 8.92209C44.1875 8.92209 44.1875 8.92209 44.1875 8.92209L44.1485 8.95342L42.9456 8.78693ZM42.9456 8.78693L42.9448 8.78762M42.9456 8.78693L42.9448 8.78762M42.9448 8.78762L42.3065 9.32344M42.9448 8.78762L42.3065 9.32344M42.8745 10.8834H42.8745C42.3866 10.8834 41.9911 10.488 41.991 10.0002L42.8745 10.8834ZM42.8745 10.8834C43.082 10.8832 43.2827 10.8101 43.4416 10.6767M42.8745 10.8834L43.4416 10.6767M42.3065 9.32344C42.3065 9.32345 42.3065 9.32345 42.3065 9.32345M42.3065 9.32344L42.3065 9.32345M42.3065 9.32345C42.1064 9.49129 41.9909 9.73906 41.991 10.0002L42.3065 9.32345ZM43.4416 10.6767L43.4095 10.6384L43.4416 10.6767Z" fill="#E3B589" stroke="#E3B589" stroke-width="0.1"/>
<path d="M41.1058 5.83556C40.7387 5.51437 40.1806 5.55146 39.8593 5.9186L39.8593 5.91859L39.3611 6.58986L39.3228 6.55771C39.1892 6.71683 39.116 6.918 39.116 7.1258V7.12581C39.1161 7.61362 39.5116 8.00914 39.9995 8.00903H39.9995C40.2607 8.00881 40.5084 7.89309 40.6761 7.69279M41.1058 5.83556L41.0729 5.87319M41.1058 5.83556C41.1058 5.83556 41.1058 5.83556 41.1058 5.83556L41.0729 5.87319M41.1058 5.83556C41.4621 6.14727 41.5093 6.68467 41.2126 7.05369L41.2119 7.05451L41.2119 7.05451L40.6761 7.69279M41.0729 5.87319C41.409 6.16726 41.4535 6.67424 41.1736 7.02236L40.6378 7.66069C40.4796 7.84965 40.2459 7.95882 39.9995 7.95903C39.5392 7.95913 39.1661 7.58601 39.166 7.1258L41.0729 5.87319ZM40.6761 7.69279L40.6378 7.66074L40.6761 7.69284L40.6761 7.69279Z" fill="#E3B589" stroke="#E3B589" stroke-width="0.1"/>
<path d="M32.1517 2.77184L32.1517 2.77182L32.4365 1.98893C32.5946 1.52768 33.0967 1.28178 33.5581 1.43973M32.1517 2.77184L33.5581 1.43973M32.1517 2.77184C32.1164 2.86873 32.0983 2.97099 32.0984 3.07417M32.1517 2.77184L32.0984 3.07417M33.5581 1.43973C34.0196 1.59763 34.2657 2.09991 34.1078 2.56145L34.1078 2.56165C34.1041 2.57209 34.1004 2.58259 34.0963 2.5931M33.5581 1.43973L34.0963 2.5931M34.0963 2.5931L33.8123 3.37513C33.6856 3.72448 33.3537 3.95724 32.982 3.95724L34.0963 2.5931ZM32.0984 3.07417L32.1484 3.07412M32.0984 3.07417L32.1484 3.07412M32.1484 3.07412L32.0984 3.07413C32.0985 3.56195 32.4942 3.95735 32.982 3.95724L32.1484 3.07412Z" fill="#E3B589" stroke="#E3B589" stroke-width="0.1"/>
<path d="M28.1822 1.86787L28.1814 1.86774V1.87238C28.0998 2.35132 28.4204 2.80671 28.8995 2.89082L28.8996 2.89085C28.9503 2.89955 29.0016 2.90396 29.053 2.90407L29.0532 2.90407C29.4815 2.90374 29.8478 2.59623 29.9224 2.17444L29.9224 2.17443L30.0674 1.3536L30.0674 1.35358C30.152 0.87304 29.8311 0.414932 29.3505 0.330245C28.87 0.245555 28.4119 0.566533 28.3272 1.04704C28.3272 1.04704 28.3272 1.04705 28.3272 1.04706L28.1822 1.86787Z" fill="#E3B589" stroke="#E3B589" stroke-width="0.1"/>
<path d="M13.6816 3.62922L13.6816 3.62922L15.3483 6.51589C15.5922 6.93834 15.4475 7.47861 15.025 7.72252C14.891 7.79991 14.7391 7.84077 14.5842 7.84089C14.5842 7.84089 14.5842 7.84089 14.5842 7.84089L14.5842 7.79089C14.2862 7.7912 14.0106 7.63234 13.8617 7.37422L13.6816 3.62922ZM13.6816 3.62922L13.6815 3.62893C13.437 3.212 12.9029 3.0689 12.4828 3.30773L12.4828 3.30774C12.0587 3.54889 11.9104 4.08816 12.1515 4.51227L12.1515 4.51227L12.1517 4.51256L13.8184 7.39921L13.6816 3.62922Z" fill="#E3B589" stroke="#E3B589" stroke-width="0.1"/>
<path d="M4.51256 12.1517L4.51256 12.1517L4.51227 12.1515C4.09213 11.9127 3.55805 12.0558 3.31359 12.4727L3.31359 12.4727C3.06692 12.8936 3.20802 13.4347 3.62894 13.6814L3.62922 13.6816L6.51589 15.3483L6.51589 15.3483C6.65016 15.4258 6.80253 15.4666 6.95756 15.4666C7.27313 15.4666 7.56474 15.2982 7.72253 15.025C7.96644 14.6025 7.82168 14.0622 7.39923 13.8183L4.51256 12.1517Z" fill="#E3B589" stroke="#E3B589" stroke-width="0.1"/>
<path d="M4.07151 37.9669C4.22672 37.9672 4.37916 37.9263 4.51338 37.8484L7.39995 36.1818L7.40006 36.1818L7.40491 36.1789L7.40975 36.1761L7.40993 36.176C7.83083 35.9292 7.97195 35.3881 7.72517 34.9672L7.72516 34.9672C7.47841 34.5464 6.93735 34.4053 6.51647 34.652C6.51642 34.652 6.51637 34.652 6.51633 34.652L3.62995 36.3185C3.35667 36.4763 3.18828 36.7679 3.18828 37.0835C3.18828 37.5713 3.58363 37.9668 4.07151 37.9669ZM4.07151 37.9669L4.07162 37.9169M4.07151 37.9669C4.07154 37.9669 4.07158 37.9669 4.07162 37.9669V37.9169M4.07162 37.9169C4.21797 37.9172 4.36172 37.8786 4.48828 37.8052L3.65495 36.3618C3.39714 36.5107 3.23828 36.7858 3.23828 37.0835C3.23828 37.5437 3.6113 37.9169 4.07162 37.9169Z" fill="#E3B589" stroke="#E3B589" stroke-width="0.1"/>
<path d="M15.0234 42.2697L15.0234 42.2697C14.5993 42.0286 14.0601 42.1768 13.8189 42.6008C13.8189 42.6009 13.8189 42.6009 13.8189 42.601L12.1524 45.4874C12.0749 45.6214 12.0342 45.7733 12.034 45.9281L12.034 45.9281C12.0334 46.416 12.4285 46.8119 12.9164 46.8124C13.2323 46.8127 13.5244 46.6443 13.6823 46.3707C13.6823 46.3707 13.6823 46.3707 13.6823 46.3707L15.3485 43.4847L15.349 43.484L15.3489 43.484L15.3544 43.4745L15.3544 43.4745L15.3546 43.4741C15.5958 43.0501 15.4474 42.5109 15.0234 42.2697Z" fill="#E3B589" stroke="#E3B589" stroke-width="0.1"/>
<path d="M36.1816 42.6008L36.1816 42.6008L37.8482 45.4875C38.0921 45.9099 37.9474 46.4502 37.5249 46.6941C37.3909 46.7715 37.2389 46.8124 37.0841 46.8125C37.0841 46.8125 37.0841 46.8125 37.0841 46.8125L37.0841 46.7625M36.1816 42.6008L36.3616 46.3458C36.5105 46.6039 36.7861 46.7628 37.0841 46.7625M36.1816 42.6008L36.1814 42.6005C35.9369 42.1837 35.403 42.0406 34.9829 42.2794M36.1816 42.6008L36.3183 46.3708M37.0841 46.7625C37.23 46.7624 37.3735 46.7238 37.4999 46.6508C37.8985 46.4207 38.035 45.911 37.8049 45.5125L36.1383 42.6258M37.0841 46.7625L36.1383 42.6258M36.3183 46.3708L34.6516 43.4841L34.6514 43.4838L34.6514 43.4838C34.4104 43.0597 34.5588 42.5205 34.9829 42.2794M36.3183 46.3708C36.3183 46.3708 36.3183 46.3708 36.3183 46.3708L36.3183 46.3708ZM34.9829 42.2794L35.0076 42.3229M34.9829 42.2794L35.0076 42.3229M35.0076 42.3229C35.4039 42.0976 35.9076 42.2326 36.1383 42.6258M35.0076 42.3229C34.6075 42.5503 34.4675 43.059 34.6949 43.4591L36.1383 42.6258" fill="#E3B589" stroke="#E3B589" stroke-width="0.1"/>
<path d="M43.4831 34.6517L43.4831 34.6517L46.3698 36.3183C46.7923 36.5622 46.937 37.1025 46.6931 37.5249C46.5353 37.7982 46.2438 37.9666 45.9282 37.9666C45.9282 37.9666 45.9282 37.9666 45.9281 37.9666V37.9166C45.7818 37.9169 45.638 37.8784 45.5115 37.8049L43.4831 34.6517ZM43.4831 34.6517L43.4828 34.6515C43.0627 34.4127 42.5287 34.5558 42.2844 34.9726C42.0376 35.3934 42.1787 35.9346 42.5995 36.1814L42.5998 36.1816L45.4864 37.8482L43.4831 34.6517Z" fill="#E3B589" stroke="#E3B589" stroke-width="0.1"/>
<path d="M46.6941 12.4828L46.6941 12.4828C46.4529 12.0587 45.9137 11.9104 45.4896 12.1515L45.4893 12.1517L42.6026 13.8184C42.3293 13.9762 42.1609 14.2678 42.1609 14.5833C42.1609 15.0712 42.5563 15.4667 43.0443 15.4667C43.1993 15.4667 43.3517 15.4258 43.4859 15.3483L43.4859 15.3483L46.3726 13.6816L46.3729 13.6815C46.7898 13.437 46.9329 12.9029 46.6941 12.4828Z" fill="#E3B589" stroke="#E3B589" stroke-width="0.1"/>
<path d="M36.319 3.62909L36.3192 3.6288C36.566 3.208 37.1072 3.06689 37.528 3.31367C37.528 3.31367 37.528 3.31367 37.528 3.31367L36.319 3.62909ZM36.319 3.62909L34.6524 6.51576L36.319 3.62909Z" fill="#E3B589" stroke="#E3B589" stroke-width="0.1"/>
<path d="M5.83333 24.1165H0.833333C0.345511 24.1165 -0.05 24.512 -0.05 24.9998C-0.05 25.4877 0.345511 25.8832 0.833333 25.8832H5.83333C6.32116 25.8832 6.71667 25.4877 6.71667 24.9998C6.71667 24.512 6.32116 24.1165 5.83333 24.1165Z" fill="#E3B589" stroke="#E3B589" stroke-width="0.1"/>
<path d="M24.9993 43.2835C24.5115 43.2835 24.116 43.679 24.116 44.1668V49.1668C24.116 49.6547 24.5115 50.0502 24.9993 50.0502C25.4872 50.0502 25.8827 49.6547 25.8827 49.1668V44.1668C25.8827 43.679 25.4872 43.2835 24.9993 43.2835Z" fill="#E3B589" stroke="#E3B589" stroke-width="0.1"/>
<path d="M49.1667 24.1165H43.3333C42.8455 24.1165 42.45 24.512 42.45 24.9998C42.45 25.4877 42.8455 25.8832 43.3333 25.8832H49.1667C49.6545 25.8832 50.05 25.4877 50.05 24.9998C50.05 24.512 49.6545 24.1165 49.1667 24.1165Z" fill="#E3B589" stroke="#E3B589" stroke-width="0.1"/>
<path d="M23.9507 26.2327L23.9513 26.2334L23.9507 26.2327ZM23.9507 26.2327C23.31 25.6109 23.2946 24.5873 23.9164 23.9466C24.2147 23.6394 24.6226 23.4629 25.0508 23.4561L25.0514 23.4561M23.9507 26.2327L25.0514 23.4561M25.0514 23.4561C25.4807 23.4438 25.8962 23.6085 26.2006 23.9115L26.2005 23.9115M25.0514 23.4561L26.2005 23.9115M26.2005 23.9115L26.2018 23.9127M26.2005 23.9115L26.2018 23.9127M26.2018 23.9127C26.8553 24.521 26.892 25.544 26.2837 26.1976C25.6755 26.8511 24.6524 26.8878 23.9989 26.2795L26.2018 23.9127ZM36.892 13.1491L36.892 13.1491C36.5471 12.8042 35.9879 12.8042 35.643 13.1491L35.643 13.1491L26.6824 22.1097C26.1757 21.8274 25.6039 21.6825 25.0236 21.6894L25.023 21.6894C24.4775 21.7021 23.9434 21.8473 23.4669 22.1122L19.2179 17.8633C18.873 17.517 18.3127 17.5158 17.9664 17.8607C17.6201 18.2056 17.6188 18.7659 17.9638 19.1122L17.9638 19.1123L22.1775 23.3259C21.2105 24.9067 21.6933 26.9754 23.267 27.9632C24.8519 28.9581 26.9433 28.4797 27.9382 26.8947C28.6225 25.8046 28.6295 24.422 27.9592 23.3259L36.892 14.3981L36.892 14.3981C37.2369 14.0532 37.2369 13.494 36.892 13.1491Z" fill="#E3B589" stroke="#E3B589" stroke-width="0.1"/>
</svg>
