<svg width="44" height="44" viewBox="0 0 44 44" fill="none" xmlns="http://www.w3.org/2000/svg">
<path d="M4.8125 4.8125H7.9375V6.375H4.8125V4.8125Z" fill="#E3B589"/>
<path d="M0.125 4.8125H3.25V6.375H0.125V4.8125Z" fill="#E3B589"/>
<path d="M3.25 6.375H4.8125V9.5H3.25V6.375Z" fill="#E3B589"/>
<path d="M3.25 1.6875H4.8125V4.8125H3.25V1.6875Z" fill="#E3B589"/>
<path d="M39.9688 14.1875H43.0938V15.75H39.9688V14.1875Z" fill="#E3B589"/>
<path d="M35.2812 14.1875H38.4062V15.75H35.2812V14.1875Z" fill="#E3B589"/>
<path d="M38.4062 15.75H39.9688V18.875H38.4062V15.75Z" fill="#E3B589"/>
<path d="M38.4062 11.0625H39.9688V14.1875H38.4062V11.0625Z" fill="#E3B589"/>
<path d="M26.6875 3.25H29.8125V4.8125H26.6875V3.25Z" fill="#E3B589"/>
<path d="M22 3.25H25.125V4.8125H22V3.25Z" fill="#E3B589"/>
<path d="M25.125 4.8125H26.6875V7.9375H25.125V4.8125Z" fill="#E3B589"/>
<path d="M25.125 0.125H26.6875V3.25H25.125V0.125Z" fill="#E3B589"/>
<path d="M2.46875 31.375C1.17969 31.375 0.125 32.4297 0.125 33.7188C0.125 35.0078 1.17969 36.0625 2.46875 36.0625C3.75781 36.0625 4.8125 35.0078 4.8125 33.7188C4.8125 32.4297 3.75781 31.375 2.46875 31.375ZM2.46875 34.5C2.03906 34.5 1.6875 34.1484 1.6875 33.7188C1.6875 33.2891 2.03906 32.9375 2.46875 32.9375C2.89844 32.9375 3.25 33.2891 3.25 33.7188C3.25 34.1484 2.89844 34.5 2.46875 34.5Z" fill="#E3B589"/>
<path d="M39.1875 7.15625C40.4766 7.15625 41.5312 6.10156 41.5312 4.8125C41.5312 3.52344 40.4766 2.46875 39.1875 2.46875C37.8984 2.46875 36.8438 3.52344 36.8438 4.8125C36.8438 6.10156 37.8984 7.15625 39.1875 7.15625ZM39.1875 4.03125C39.6172 4.03125 39.9688 4.38281 39.9688 4.8125C39.9688 5.24219 39.6172 5.59375 39.1875 5.59375C38.7578 5.59375 38.4062 5.24219 38.4062 4.8125C38.4062 4.38281 38.7578 4.03125 39.1875 4.03125Z" fill="#E3B589"/>
<path d="M29.9219 20.0937C30.7891 19.3672 31.3203 18.3437 31.4141 17.2187C31.5156 16.0937 31.1641 14.9922 30.4375 14.1328C29.7109 13.2656 28.6875 12.7344 27.5625 12.6406C26.4375 12.5469 25.3359 12.8906 24.4766 13.6172C23.9062 14.0937 23.4766 14.7109 23.2188 15.4219L22 18.875L20.7734 15.4062C20.5156 14.7031 20.0859 14.0859 19.5156 13.6094C18.6484 12.8828 17.5547 12.5391 16.4297 12.6328C15.3047 12.7344 14.2813 13.2656 13.5547 14.125C12.8281 14.9922 12.4844 16.0859 12.5781 17.2109C12.6797 18.3359 13.2109 19.3594 14.0703 20.0859C14.2188 20.2109 14.375 20.3203 14.5391 20.4297H7.15625V27.4609H9.10938V43.8672H34.8906V27.4687H36.8438V20.4375H29.4453C29.6094 20.3359 29.7734 20.2187 29.9219 20.0937ZM24.6953 15.9453C24.8516 15.5078 25.125 15.1094 25.4844 14.8125C25.9688 14.4062 26.5703 14.1875 27.1953 14.1875C27.2734 14.1875 27.3516 14.1875 27.4297 14.1953C28.1406 14.2578 28.7812 14.5937 29.2422 15.1406C29.7031 15.6875 29.9219 16.375 29.8594 17.0859C29.7969 17.7969 29.4609 18.4375 28.9141 18.8984C28.5547 19.1953 28.125 19.3984 27.6719 19.4766L23.1797 20.2266L24.6953 15.9453ZM14.1406 17.0859C14.0781 16.375 14.2969 15.6875 14.7578 15.1406C15.2188 14.5937 15.8594 14.2578 16.5703 14.1953C17.2812 14.1328 17.9688 14.3516 18.5156 14.8125C18.875 15.1094 19.1484 15.5 19.3047 15.9375L20.8203 20.2266L16.3359 19.4766C15.875 19.3984 15.4375 19.1953 15.0859 18.8984C14.5391 18.4453 14.2031 17.7969 14.1406 17.0859ZM18.875 42.3125H10.6719V27.4687H18.875V42.3125ZM18.875 25.9062H8.71875V22H18.875V25.9062ZM23.5625 42.3125H20.4375V22H23.5625V42.3125ZM33.3281 42.3125H25.125V27.4687H33.3281V42.3125ZM35.2812 22V25.9062H25.125V22H35.2812Z" fill="#E3B589"/>
<path d="M2.46875 14.9688H4.03125V16.5312H2.46875V14.9688Z" fill="#E3B589"/>
<path d="M41.5312 29.8125H43.0938V31.375H41.5312V29.8125Z" fill="#E3B589"/>
<path d="M14.9688 7.15625H16.5312V8.71875H14.9688V7.15625Z" fill="#E3B589"/>
</svg>
