<svg width="24" height="24" viewBox="0 0 24 24" fill="none" xmlns="http://www.w3.org/2000/svg">
<path d="M12 14.4609C13.3591 14.4609 14.4609 13.3591 14.4609 12C14.4609 10.6409 13.3591 9.53906 12 9.53906C10.6409 9.53906 9.53906 10.6409 9.53906 12C9.53906 13.3591 10.6409 14.4609 12 14.4609Z" fill="black"/>
<path d="M12 0.28125C5.52792 0.28125 0.28125 5.52792 0.28125 12C0.28125 18.4721 5.52792 23.7188 12 23.7188C18.4721 23.7188 23.7188 18.4721 23.7188 12C23.7188 5.52792 18.4721 0.28125 12 0.28125ZM19.2402 14.9784C19.184 16.0926 18.8709 17.1912 18.059 17.9945C17.2392 18.8055 16.1353 19.1076 15.0105 19.1633H8.98959C7.86459 19.1076 6.76088 18.8056 5.94108 17.9945C5.12911 17.1912 4.81608 16.0926 4.75983 14.9784V9.02156C4.81608 7.90744 5.12916 6.80878 5.94108 6.00544C6.76088 5.1945 7.86473 4.89234 8.98959 4.8367H15.0104C16.1354 4.89234 17.2391 5.19436 18.0589 6.00544C18.8709 6.80878 19.1839 7.90744 19.2402 9.02156L19.2402 14.9784Z" fill="black"/>
<path d="M14.9338 6.19398C13.4672 6.15376 10.5319 6.15376 9.06539 6.19398C8.30221 6.21494 7.43704 6.40492 6.89329 6.9857C6.32826 7.58941 6.11474 8.31878 6.09309 9.13474C6.05503 10.5669 6.09309 14.8653 6.09309 14.8653C6.11789 15.6812 6.32826 16.4106 6.89329 17.0143C7.43704 17.5953 8.30221 17.7851 9.06539 17.8061C10.5319 17.8463 13.4672 17.8463 14.9338 17.8061C15.6969 17.7851 16.5621 17.5951 17.1059 17.0143C17.6709 16.4106 17.8844 15.6813 17.9061 14.8653V9.13474C17.8844 8.31878 17.6709 7.58941 17.1059 6.9857C16.5619 6.40473 15.6967 6.21494 14.9338 6.19398ZM11.9994 15.8145C11.245 15.8145 10.5075 15.5908 9.88019 15.1716C9.25291 14.7525 8.764 14.1568 8.47529 13.4597C8.18658 12.7627 8.11104 11.9958 8.25823 11.2559C8.40541 10.5159 8.7687 9.83625 9.30216 9.30279C9.83562 8.76933 10.5153 8.40604 11.2552 8.25886C11.9952 8.11167 12.7621 8.18721 13.4591 8.47592C14.1561 8.76463 14.7518 9.25354 15.171 9.88082C15.5901 10.5081 15.8138 11.2456 15.8138 12C15.8138 13.0117 15.412 13.9819 14.6966 14.6972C13.9813 15.4126 13.011 15.8145 11.9994 15.8145ZM15.8301 8.97292C15.6792 8.97289 15.5317 8.92811 15.4063 8.84426C15.2808 8.76041 15.1831 8.64125 15.1254 8.50185C15.0677 8.36244 15.0526 8.20906 15.082 8.06108C15.1115 7.91311 15.1842 7.77719 15.2909 7.67052C15.3976 7.56385 15.5335 7.49121 15.6815 7.46179C15.8295 7.43236 15.9828 7.44748 16.1222 7.50523C16.2616 7.56298 16.3808 7.66076 16.4646 7.78621C16.5484 7.91166 16.5931 8.05915 16.5931 8.21003C16.5931 8.31023 16.5734 8.40945 16.535 8.50202C16.4967 8.59459 16.4405 8.6787 16.3696 8.74954C16.2988 8.82039 16.2146 8.87658 16.1221 8.9149C16.0295 8.95323 15.9303 8.97295 15.8301 8.97292Z" fill="black"/>
</svg>
