<?xml version="1.0" encoding="UTF-8"?>
<svg id="_Шар_2" data-name="Шар 2" xmlns="http://www.w3.org/2000/svg" viewBox="0 0 190.04 185.52">
  <defs>
    <style>
      .cls-1 {
        fill: #e4b58d;
        stroke-width: 0px;
      }
    </style>
  </defs>
  <g id="_Шар_1-2" data-name="Шар 1">
    <g>
      <path class="cls-1" d="m108.92,160.39H20.69c-11.31,0-20.52-9.2-20.52-20.52V32.41C.17,21.1,9.38,11.89,20.69,11.89h116.7c11.31,0,20.52,9.2,20.52,20.52v70.98c0,1.38-1.12,2.5-2.5,2.5s-2.5-1.12-2.5-2.5V32.41c0-8.56-6.96-15.52-15.52-15.52H20.69c-8.56,0-15.52,6.96-15.52,15.52v107.46c0,8.56,6.96,15.52,15.52,15.52h88.23c1.38,0,2.5,1.12,2.5,2.5s-1.12,2.5-2.5,2.5Z"/>
      <path class="cls-1" d="m37.79,30.35c-1.38,0-2.5-1.12-2.5-2.5V2.5c0-1.38,1.12-2.5,2.5-2.5s2.5,1.12,2.5,2.5v25.35c0,1.38-1.12,2.5-2.5,2.5Z"/>
      <path class="cls-1" d="m134.46,86.33H54.62c-1.38,0-2.5-1.12-2.5-2.5s1.12-2.5,2.5-2.5h79.84c1.38,0,2.5,1.12,2.5,2.5s-1.12,2.5-2.5,2.5Z"/>
      <path class="cls-1" d="m103.32,109.61H23.48c-1.38,0-2.5-1.12-2.5-2.5s1.12-2.5,2.5-2.5h79.84c1.38,0,2.5,1.12,2.5,2.5s-1.12,2.5-2.5,2.5Z"/>
      <path class="cls-1" d="m72.63,132.74H23.48c-1.38,0-2.5-1.12-2.5-2.5s1.12-2.5,2.5-2.5h49.15c1.38,0,2.5,1.12,2.5,2.5s-1.12,2.5-2.5,2.5Z"/>
      <path class="cls-1" d="m120.23,30.35c-1.38,0-2.5-1.12-2.5-2.5V2.5c0-1.38,1.12-2.5,2.5-2.5s2.5,1.12,2.5,2.5v25.35c0,1.38-1.12,2.5-2.5,2.5Z"/>
      <path class="cls-1" d="m154.92,58.38H2.5c-1.38,0-2.5-1.12-2.5-2.5s1.12-2.5,2.5-2.5h152.42c1.38,0,2.5,1.12,2.5,2.5s-1.12,2.5-2.5,2.5Z"/>
      <path class="cls-1" d="m147.95,185.52c-23.21,0-42.09-18.88-42.09-42.09s18.88-42.09,42.09-42.09,42.09,18.88,42.09,42.09-18.88,42.09-42.09,42.09Zm0-79.18c-20.45,0-37.09,16.64-37.09,37.09s16.64,37.09,37.09,37.09,37.09-16.64,37.09-37.09-16.64-37.09-37.09-37.09Z"/>
      <path class="cls-1" d="m169.83,147.46h-24.3v-33.64c0-1.38,1.12-2.5,2.5-2.5s2.5,1.12,2.5,2.5v28.64h19.3c1.38,0,2.5,1.12,2.5,2.5s-1.12,2.5-2.5,2.5Z"/>
      <g>
        <circle class="cls-1" cx="148.13" cy="144.7" r="3.63"/>
        <path class="cls-1" d="m148.13,149.43c-2.61,0-4.73-2.12-4.73-4.73s2.12-4.73,4.73-4.73,4.73,2.12,4.73,4.73-2.12,4.73-4.73,4.73Zm0-7.25c-1.39,0-2.52,1.13-2.52,2.52s1.13,2.52,2.52,2.52,2.52-1.13,2.52-2.52-1.13-2.52-2.52-2.52Z"/>
      </g>
    </g>
  </g>
</svg>